<svg xmlns="http://www.w3.org/2000/svg" viewBox="112.6 -247.5 40 45" enable-background="new 112.6 -247.5 40 45" xml:space="preserve">
	<g>
				<g id="Layer_14">
					<path fill="#FF66C8" d="M142.8-239.7c0,0,0.8-1.4,2.3-0.7c1.5,0.7,6.1,2.7,6.1,2.7s2.1,0.7,1.2,2.8c-0.7,1.5-2.7,6.2-2.7,6.2
						l-9.6-4.6L142.8-239.7L142.8-239.7z"/>
				</g>
				<g id="Layer_11">
					<path fill="#D2D8D5" d="M140.7-234.7l2.6,1.8l3.7,1.6l3.5,0.7l-1.9,4.1c0,0-8.8,6.5-9.7-4.2L140.7-234.7L140.7-234.7z"/>
				</g>
				<g id="Layer_8">
					<polygon fill="#157A4A" points="149.4,-228.2 145.9,-229 142.2,-230.6 139.7,-232.4 129,-208.2 138,-202.6 		"/>
				</g>
				<g id="Layer_1">
					<polygon fill="#22B573" points="138,-202.5 125.3,-202.5 112.6,-234.2 123.5,-238.7 		"/>
				</g>
				<g id="Layer_2">
					<path fill="#FFDAAE" d="M112.6-234.2l1.2-13.2l9.7,8.7c0,0-1.7,2.2-3.8,1.6c0,0-0.9,1.9-3.4,1.4
						C116.3-235.8,115.1-233.4,112.6-234.2z"/>
				</g>
				<g id="Layer_7">
					<path d="M115.1-246.3l-1.3-1.2l-0.3,3.2c0.1,0,1.8-0.4,2.5-1.2C116-245.5,115.1-246.3,115.1-246.3z"/>
				</g>
				</g>
</svg>